<svg xmlns="http://www.w3.org/2000/svg" xml:space="preserve" width="600" height="182.39999" x="0px" y="0px" viewBox="0 0 600 182.39999"><path fill="#1a0000" d="m28.4 115.5 55 66.9L99.6 170 53 114.4l40.3-50.2-16.4-11.7zM20.9 0 0 4.5v174.7h20.9z"/><g fill="#1a0000"><path d="M118.1 146c0-12.5 4.2-22 12.6-28.6 8.4-6.6 20.7-9.8 36.7-9.8h24.1v-7.9C191.5 80.6 183 71 166 71c-5.4 0-11.2.8-17.2 2.3-6 1.5-11.5 3.4-16.5 5.6l-6.1-14.7c6.2-3.5 12.9-6.1 20.1-8 7.2-1.9 14.2-2.8 21-2.8 29.4 0 44.1 15.6 44.1 46.8v79.1h-15.5l-2.5-13.6c-6.2 5-12.8 8.8-19.9 11.5-7 2.7-13.8 4.1-20.1 4.1-11.1 0-19.7-3.1-26-9.4-6.1-6.3-9.3-14.9-9.3-25.9m39.3 18.5c2.9 0 5.8-.4 8.9-1.1 3.1-.7 6.2-1.7 9.3-2.9 3.1-1.2 6-2.7 8.7-4.4 2.7-1.7 5.1-3.6 7.3-5.5v-28.9h-21.7c-11 0-19 1.9-24.1 5.7-5 3.8-7.6 9.7-7.6 17.9-.1 12.8 6.3 19.2 19.2 19.2M269.7 179.2h-20.9V4.5L269.7 0zm55.9-126.8L342 64.1l-40.2 50.2 46.6 55.6-16.1 12.4-55-66.9zM366.9 146c0-12.5 4.2-22 12.6-28.6 8.4-6.6 20.7-9.8 36.7-9.8h24.1v-7.9c0-19.1-8.5-28.7-25.5-28.7-5.5 0-11.2.8-17.2 2.3-6 1.5-11.5 3.4-16.5 5.6L375 64.2c6.2-3.5 12.9-6.1 20.1-8 7.2-1.9 14.2-2.8 21-2.8 29.4 0 44.1 15.6 44.1 46.8v79.1h-15.5l-2.5-13.6c-6.2 5-12.8 8.8-19.9 11.5-7 2.7-13.8 4.1-20.1 4.1-11.1 0-19.7-3.1-26-9.4-6.2-6.3-9.3-14.9-9.3-25.9m39.3 18.5c2.9 0 5.8-.4 8.9-1.1 3.1-.7 6.2-1.7 9.3-2.9 3.1-1.2 6-2.7 8.7-4.4 2.7-1.7 5.1-3.6 7.2-5.5v-28.9h-21.7c-11 0-19.1 1.9-24.1 5.7-5.1 3.8-7.6 9.7-7.6 17.9 0 12.8 6.4 19.2 19.3 19.2M544.5 53.6c17.3 0 30.9 5.6 40.7 16.7 9.9 11.2 14.8 27.1 14.8 47.9 0 20.5-4.9 36.2-14.7 47.2-9.8 11-23.4 16.5-40.8 16.5-17.3 0-30.9-5.5-40.7-16.5-9.9-11-14.8-26.7-14.8-47.2 0-20.8 5-36.8 14.9-47.9 9.9-11.1 23.5-16.7 40.6-16.7m0 16.7c-10.9 0-19.3 4.1-25.1 12.2-5.8 8.1-8.8 20-8.8 35.7 0 15.5 2.9 27.2 8.8 35.1 5.8 7.9 14.2 11.9 25.1 11.9 11.1 0 19.5-4 25.4-11.9 5.8-7.9 8.7-19.6 8.7-35.1 0-15.7-2.9-27.6-8.7-35.7-5.9-8.1-14.3-12.2-25.4-12.2"/></g></svg>